<svg width="101" height="32" viewBox="0 0 101 32" fill="none" xmlns="http://www.w3.org/2000/svg">
<g clip-path="url(#clip0_7700_582)">
<path d="M10.5338 19.1827H0V6.74741L8.88037 0L17.7775 6.58848V12.1537H13.874V8.55415L8.91104 4.87932L3.90346 8.68241V15.2793H10.5338V19.1827Z" fill="#F19F3A"/>
<path d="M36.1544 15.2764L29.8336 31.671H33.4582L34.7714 28.0881H41.5439L42.8572 31.671H46.4818L40.1498 15.2764H36.1544ZM35.8282 25.1606L38.1702 18.7477L40.4872 25.1606H35.8282Z" fill="#00114A"/>
<path d="M56.2851 18.204C58.1811 18.204 59.7257 19.1186 60.5929 20.9699L63.5706 19.4225C62.2351 16.52 59.5668 14.9614 56.2154 14.9614C51.2497 14.8805 47.678 18.6808 47.7589 23.4988C47.6891 28.3475 51.272 32.0697 56.2126 32C59.5584 32 62.2323 30.4302 63.5679 27.5389L60.618 25.9914C60.2573 26.8343 59.6509 27.5488 58.878 28.0417C58.105 28.5346 57.2014 28.783 56.2851 28.7545C53.3798 28.7545 51.3668 26.524 51.3668 23.4849C51.3668 20.4457 53.3798 18.204 56.2851 18.204Z" fill="#00114A"/>
<path d="M77.3247 21.6948H70.0643V15.2764H66.5986V31.671H70.0643V24.8789H77.3247V31.671H80.7681V15.2764H77.3247V21.6948Z" fill="#00114A"/>
<path d="M93.9172 15.2764H89.9357L83.6121 31.671H87.2368L88.5472 28.0881H95.3169L96.6274 31.671H100.252L93.9172 15.2764ZM89.6067 25.1606L91.9488 18.7477L94.2686 25.1606H89.6067Z" fill="#00114A"/>
<path d="M13.8712 31.671H20.4764C25.2163 31.671 28.5622 28.5817 28.5622 23.4737C28.5622 18.3657 25.2359 15.2764 20.4764 15.2764H13.8712V31.671ZM17.3397 18.4856H20.4764C23.3566 18.4856 24.9375 20.1948 24.9375 23.4737C24.9375 26.7526 23.3427 28.4646 20.4764 28.4646H17.3397V18.4856Z" fill="#00114A"/>
</g>
<defs>
<clipPath id="clip0_7700_582">
<rect width="100.263" height="32" fill="white"/>
</clipPath>
</defs>
</svg>
